<svg width="40" height="40" viewBox="0 0 40 40" fill="none" xmlns="http://www.w3.org/2000/svg">
<path d="M7.28101 15.9782C7.28101 21.3396 11.7885 26.6381 18.7947 31.1582C19.1839 31.4093 19.661 31.6604 19.9875 31.6604C20.3139 31.6604 20.791 31.4093 21.1803 31.1582C28.199 26.6381 32.694 21.3396 32.694 15.9782C32.694 11.3451 29.4922 8.13086 25.3865 8.13086C22.9883 8.13086 21.1175 9.22321 19.9875 10.8806C18.8826 9.23577 16.9992 8.13086 14.601 8.13086C10.4827 8.13086 7.28101 11.3451 7.28101 15.9782ZM9.8675 15.9657C9.8675 12.8016 11.9518 10.6546 14.7517 10.6546C17.0118 10.6546 18.2799 12.0232 19.0709 13.216C19.4225 13.7307 19.661 13.894 19.9875 13.894C20.3265 13.894 20.5399 13.7182 20.9041 13.216C21.7578 12.0483 22.9758 10.6546 25.2232 10.6546C28.0357 10.6546 30.12 12.8016 30.12 15.9657C30.12 20.3853 25.5246 25.2821 20.226 28.7977C20.113 28.873 20.0377 28.9233 19.9875 28.9233C19.9373 28.9233 19.8619 28.873 19.7615 28.7977C14.4629 25.2821 9.8675 20.3853 9.8675 15.9657Z" fill="white"/>
</svg>
